<mxfile host="app.diagrams.net" modified="2021-07-31T06:39:51.479Z" agent="5.0 (Windows NT 10.0; Win64; x64) AppleWebKit/537.36 (KHTML, like Gecko) Chrome/92.0.4515.107 Safari/537.36" etag="GLtbgueyljM4xzAglOmv" version="14.9.3" type="github">
  <diagram id="axSN_ILpecY8JrCQ5q0i" name="Page-1">
    <mxGraphModel dx="1209" dy="562" grid="1" gridSize="10" guides="1" tooltips="1" connect="1" arrows="1" fold="1" page="1" pageScale="1" pageWidth="850" pageHeight="1100" math="0" shadow="0">
      <root>
        <mxCell id="0" />
        <mxCell id="1" parent="0" />
        <mxCell id="flfyITmb0PiYXnOCrmWV-1" value="GIT HUB" style="rounded=1;whiteSpace=wrap;html=1;" vertex="1" parent="1">
          <mxGeometry x="90" y="180" width="180" height="60" as="geometry" />
        </mxCell>
        <mxCell id="flfyITmb0PiYXnOCrmWV-2" value="maven/git" style="rounded=1;whiteSpace=wrap;html=1;" vertex="1" parent="1">
          <mxGeometry x="90" y="380" width="190" height="60" as="geometry" />
        </mxCell>
        <mxCell id="flfyITmb0PiYXnOCrmWV-3" value="jenkins" style="rounded=1;whiteSpace=wrap;html=1;" vertex="1" parent="1">
          <mxGeometry x="450" y="290" width="230" height="60" as="geometry" />
        </mxCell>
        <mxCell id="flfyITmb0PiYXnOCrmWV-4" value="" style="endArrow=none;html=1;exitX=1;exitY=0.75;exitDx=0;exitDy=0;entryX=0;entryY=0.5;entryDx=0;entryDy=0;" edge="1" parent="1" source="flfyITmb0PiYXnOCrmWV-1" target="flfyITmb0PiYXnOCrmWV-3">
          <mxGeometry width="50" height="50" relative="1" as="geometry">
            <mxPoint x="270" y="260" as="sourcePoint" />
            <mxPoint x="320" y="210" as="targetPoint" />
          </mxGeometry>
        </mxCell>
        <mxCell id="flfyITmb0PiYXnOCrmWV-5" value="" style="endArrow=none;html=1;exitX=1;exitY=0.75;exitDx=0;exitDy=0;entryX=0.042;entryY=1.009;entryDx=0;entryDy=0;entryPerimeter=0;" edge="1" parent="1" source="flfyITmb0PiYXnOCrmWV-2" target="flfyITmb0PiYXnOCrmWV-3">
          <mxGeometry width="50" height="50" relative="1" as="geometry">
            <mxPoint x="280" y="460" as="sourcePoint" />
            <mxPoint x="330" y="410" as="targetPoint" />
          </mxGeometry>
        </mxCell>
        <mxCell id="flfyITmb0PiYXnOCrmWV-6" value=".JAR" style="text;html=1;strokeColor=none;fillColor=none;align=center;verticalAlign=middle;whiteSpace=wrap;rounded=0;" vertex="1" parent="1">
          <mxGeometry x="740" y="310" width="40" height="20" as="geometry" />
        </mxCell>
        <mxCell id="flfyITmb0PiYXnOCrmWV-7" value=".WAR" style="text;html=1;strokeColor=none;fillColor=none;align=center;verticalAlign=middle;whiteSpace=wrap;rounded=0;" vertex="1" parent="1">
          <mxGeometry x="740" y="360" width="40" height="20" as="geometry" />
        </mxCell>
        <mxCell id="flfyITmb0PiYXnOCrmWV-9" value="" style="endArrow=none;html=1;entryX=0.5;entryY=1;entryDx=0;entryDy=0;" edge="1" parent="1" target="flfyITmb0PiYXnOCrmWV-1">
          <mxGeometry width="50" height="50" relative="1" as="geometry">
            <mxPoint x="150" y="380" as="sourcePoint" />
            <mxPoint x="200" y="340" as="targetPoint" />
          </mxGeometry>
        </mxCell>
        <mxCell id="flfyITmb0PiYXnOCrmWV-10" value="" style="rounded=1;whiteSpace=wrap;html=1;" vertex="1" parent="1">
          <mxGeometry x="700" y="120" width="120" height="60" as="geometry" />
        </mxCell>
        <mxCell id="flfyITmb0PiYXnOCrmWV-11" value="" style="rounded=1;whiteSpace=wrap;html=1;" vertex="1" parent="1">
          <mxGeometry x="700" y="240" width="120" height="60" as="geometry" />
        </mxCell>
        <mxCell id="flfyITmb0PiYXnOCrmWV-12" value="" style="rounded=1;whiteSpace=wrap;html=1;" vertex="1" parent="1">
          <mxGeometry x="700" y="410" width="120" height="60" as="geometry" />
        </mxCell>
        <mxCell id="flfyITmb0PiYXnOCrmWV-13" value="DEVOPS" style="text;html=1;strokeColor=none;fillColor=none;align=center;verticalAlign=middle;whiteSpace=wrap;rounded=0;" vertex="1" parent="1">
          <mxGeometry x="150" y="480" width="40" height="20" as="geometry" />
        </mxCell>
        <mxCell id="flfyITmb0PiYXnOCrmWV-14" value="SERVER1" style="text;html=1;strokeColor=none;fillColor=none;align=center;verticalAlign=middle;whiteSpace=wrap;rounded=0;" vertex="1" parent="1">
          <mxGeometry x="550" y="250" width="40" height="20" as="geometry" />
        </mxCell>
        <mxCell id="flfyITmb0PiYXnOCrmWV-15" value="SERVER2" style="text;html=1;strokeColor=none;fillColor=none;align=center;verticalAlign=middle;whiteSpace=wrap;rounded=0;" vertex="1" parent="1">
          <mxGeometry x="740" y="90" width="40" height="20" as="geometry" />
        </mxCell>
        <mxCell id="flfyITmb0PiYXnOCrmWV-16" value="SERVER3" style="text;html=1;strokeColor=none;fillColor=none;align=center;verticalAlign=middle;whiteSpace=wrap;rounded=0;" vertex="1" parent="1">
          <mxGeometry x="740" y="210" width="40" height="20" as="geometry" />
        </mxCell>
        <mxCell id="flfyITmb0PiYXnOCrmWV-17" value="" style="endArrow=none;html=1;" edge="1" parent="1" target="flfyITmb0PiYXnOCrmWV-10">
          <mxGeometry width="50" height="50" relative="1" as="geometry">
            <mxPoint x="620" y="290" as="sourcePoint" />
            <mxPoint x="670" y="240" as="targetPoint" />
          </mxGeometry>
        </mxCell>
        <mxCell id="flfyITmb0PiYXnOCrmWV-18" value="" style="endArrow=none;html=1;exitX=1;exitY=1;exitDx=0;exitDy=0;" edge="1" parent="1" source="flfyITmb0PiYXnOCrmWV-3">
          <mxGeometry width="50" height="50" relative="1" as="geometry">
            <mxPoint x="670" y="390" as="sourcePoint" />
            <mxPoint x="730" y="310" as="targetPoint" />
          </mxGeometry>
        </mxCell>
        <mxCell id="flfyITmb0PiYXnOCrmWV-19" value="" style="endArrow=none;html=1;entryX=-0.019;entryY=0.131;entryDx=0;entryDy=0;entryPerimeter=0;" edge="1" parent="1" target="flfyITmb0PiYXnOCrmWV-12">
          <mxGeometry width="50" height="50" relative="1" as="geometry">
            <mxPoint x="630" y="360" as="sourcePoint" />
            <mxPoint x="680" y="360" as="targetPoint" />
          </mxGeometry>
        </mxCell>
        <mxCell id="flfyITmb0PiYXnOCrmWV-20" value="ASIBLE" style="rounded=1;whiteSpace=wrap;html=1;" vertex="1" parent="1">
          <mxGeometry x="690" y="560" width="120" height="60" as="geometry" />
        </mxCell>
        <mxCell id="flfyITmb0PiYXnOCrmWV-21" value="DOCKER&lt;br&gt;KUBERNET&amp;nbsp;" style="rounded=1;whiteSpace=wrap;html=1;" vertex="1" parent="1">
          <mxGeometry x="420" y="530" width="220" height="80" as="geometry" />
        </mxCell>
        <mxCell id="flfyITmb0PiYXnOCrmWV-22" value="JDK&lt;br&gt;.JAR&lt;br&gt;SOME LIB&lt;br&gt;SOME SOFWTARE" style="rounded=1;whiteSpace=wrap;html=1;" vertex="1" parent="1">
          <mxGeometry x="70" y="540" width="170" height="120" as="geometry" />
        </mxCell>
      </root>
    </mxGraphModel>
  </diagram>
</mxfile>
